<svg
  xmlns="http://www.w3.org/2000/svg"
  width="24"
  height="24"
  viewBox="0 0 24 24"
  fill="none"
  stroke="currentColor"
  stroke-width="2"
  stroke-linecap="round"
  stroke-linejoin="round"
>
  <path d="m 13.4562,8.83871 c 0.71,-0.05185 2.2184,-0.76178 4.3332,-0.91215 2.179,-0.15494 2.1985,0.641 2.2553,1.39882 C 20.1084,10.1747 19.208,10.8752 19,11" />
  <path d="m 14.6076,9.59159 c 0.4575,0.16638 2.6398,0.85621 3.8975,1.50141 1.4636,0.7507 2.6131,1.5811 2.4068,2.3126 -0.2313,0.8199 -1.1251,1.9693 -2.6552,1.2193 -1.1683,-0.5726 -1.9655,-0.793 -2.4231,-1.1258" />
  <path d="M 2.98197,6.00932 V 13.7" />
  <path d="m 2.98197,6.86681 c 0,0 2.21229,0.59142 2.73589,0.80997 0.52359,0.21855 1.83263,0.18901 3.24633,0.39699 1.41371,0.20797 2.43511,-0.04691 3.38381,0.61177 0.9486,0.65867 1.7802,1.87356 2.1095,2.64726 0.3294,0.7736 1.1917,2.4685 0.6334,3.2218 -0.5584,0.7533 -1.0691,2.1635 -2.8178,1.9027" />
  <path d="m 2.98197,12.8455 c 0,0 1.27967,0.4697 1.7127,0.8545 0.43303,0.3849 0.06605,1.1412 1.02272,2.055 0.95668,0.9138 1.8713,1.8248 2.68047,2.1711 0.80917,0.3463 2.14974,-0.3143 3.28464,-0.4076 1.1348,-0.0932 0.1271,-3.3865 -0.7854,-3.426 C 9.98458,14.053 8.89622,14.725 9.14579,13.453 c 0.24957,-1.2721 1.37861,-0.9937 1.37861,-0.9937 0,0 1.4756,1.342 0.4159,1.5916" />
</svg>
