<?xml version="1.0" encoding="UTF-8" standalone="no"?>
<svg
   version="1.1"
   id="Layer_1"
   x="0px"
   y="0px"
   width="750"
   viewBox="0 0 750.00001 479.99999"
   enable-background="new 0 0 1024 640"
   xml:space="preserve"
   height="480"
   sodipodi:docname="hand-flick-sticker.svg"
   inkscape:version="1.3.2 (091e20e, 2023-11-25)"
   xmlns:inkscape="http://www.inkscape.org/namespaces/inkscape"
   xmlns:sodipodi="http://sodipodi.sourceforge.net/DTD/sodipodi-0.dtd"
   xmlns="http://www.w3.org/2000/svg"
   xmlns:svg="http://www.w3.org/2000/svg"><sodipodi:namedview
   id="namedview1"
   pagecolor="#ffffff"
   bordercolor="#000000"
   borderopacity="0.25"
   inkscape:showpageshadow="2"
   inkscape:pageopacity="0.0"
   inkscape:pagecheckerboard="0"
   inkscape:deskcolor="#d1d1d1"
   inkscape:zoom="0.38133333"
   inkscape:cx="375"
   inkscape:cy="241.25874"
   inkscape:window-width="1744"
   inkscape:window-height="1067"
   inkscape:window-x="2205"
   inkscape:window-y="159"
   inkscape:window-maximized="0"
   inkscape:current-layer="Layer_1" /><defs
   id="defs30" />








<g
   id="g25179"><path
     id="path8400-1"
     style="display:inline;fill:#ffffff;fill-opacity:1"
     d="M 64.2474 23.5332 C 44.751 22.2316 34.8959 14.6566 29.1054 21.4922 C 23.3149 28.3279 26.8702 60.5397 25.6413 83.8988 C 24.4125 107.258 25.6147 135.737 25.5326 158.729 C 25.4505 181.72 18.55 203.828 26.1186 213.95 C 33.6871 224.073 48.1904 223.15 75.4494 235.347 C 102.709 247.544 130.368 313.776 162.821 337.368 C 195.274 360.96 212.722 383.132 234.76 405.3 C 256.798 427.468 278.625 456.979 307.794 458.233 C 336.962 459.487 346.506 429.763 376.89 435.617 C 407.275 441.472 422.029 415.036 449.472 397.029 C 476.916 379.022 486.701 330.302 500.034 305.525 C 513.366 280.748 528.814 314.642 560.934 321.877 C 593.054 329.113 658.195 353.083 695.812 342.388 C 733.43 331.692 737.195 277.719 716.25 262.284 C 695.306 246.85 657.582 256.082 690.727 244.474 C 723.872 232.865 731.276 182.287 699.493 165.827 C 667.71 149.368 638.087 160.918 603.881 160.295 C 569.676 159.671 602.505 123.885 577.217 109.813 C 551.93 95.7406 534.662 110.84 509.255 110.752 C 483.848 110.665 446.598 129.136 423.421 109.644 C 400.244 90.1524 376.493 83.2043 341.974 84.3798 C 307.456 85.5553 256.997 87.3238 221.497 78.8082 C 185.997 70.2927 156.025 66.8974 136.118 42.0923 C 116.21 17.2873 83.7439 24.8348 64.2474 23.5332 Z M 353.32 269.25 C 373.647 269.541 401.235 306.844 374.046 331.323 C 346.857 355.802 309.108 325.756 332.414 307.133 C 355.72 288.51 332.992 268.959 353.32 269.25 Z" /><path
     style="display:inline;fill:#b59681;fill-opacity:1"
     d="M 45.7303 33.1657 C 61.069 46.1221 86.2741 35.0924 102.831 45.4147 C 121.119 53.5889 131.612 72.8014 150.04 84.9683 C 177.684 94.846 207.647 94.8723 235.526 102.831 C 260.883 109.245 289.915 107.375 316.866 106.659 C 344.614 105.726 374.274 101.604 399.536 113.797 C 411.667 126.105 424.447 144.954 447.336 136.06 C 472.442 132.95 498.497 136.867 523.246 131.539 C 538.303 133.356 567.316 109.642 569.18 135.367 C 587.232 158.485 522.36 159.178 546.055 176.413 C 570.198 175.202 592.359 182.416 614.428 181.938 C 635.051 182.16 655.208 182.72 675.333 178.805 C 710.498 173.162 703.317 217.276 679.996 226.97 C 654.639 235.379 627.185 229.222 601.126 231.769 C 596.558 244.256 626.206 258.125 641.907 259.131 C 663.321 266.905 684.492 275.887 707.617 276.356 C 720.774 301.618 693.558 330.728 666.817 323.553 C 636.688 324.256 607.377 315.448 579.411 304.972 C 553.036 298.826 531.278 285.482 503.823 273.278 C 500.975 272.568 477.703 259.365 486.883 282.098 C 479.983 307.552 464.184 330.41 456.261 356.101 C 444.28 374.434 415.995 395.066 402.764 398.215 C 399.673 391.242 353.266 356.767 386.953 346.331 C 398.633 332.396 429.07 311.085 409.192 292.526 C 394.12 268.471 373.815 251.058 345.893 244.458 C 331.781 246.667 331.892 277.713 320.22 288.919 C 305.754 306.509 283.251 330.074 311.772 347.206 C 329.646 371.473 370.013 349.846 387.039 378.777 C 404.242 391.56 414.724 423.247 381.556 414.629 C 351.776 405.855 333.674 436.48 306.34 437.76 C 292.199 433.588 286.464 426.665 282.357 424.106 C 261.949 410.518 251.21 386.866 231.699 372.05 C 208.975 360.923 200.612 336.561 178.952 324.004 C 156.074 307.081 140.571 283.081 128.4 257.824 C 113.743 234.718 92.9368 216.657 66.1039 208.573 C 51.956 200.859 28.5014 199.131 44.1473 178.909 C 42.9567 130.31 46.0912 81.7775 45.7303 33.1657 Z"
     id="path8400" /><path
     id="path441"
     style="display:inline;fill:#e7c1a9;fill-opacity:1"
     d="M 65.5385 42.1934 C 45.5007 36.4847 46.4927 53.2703 46.0497 67.0407 L 37.5326 155.787 C 62.6305 158.29 95.1699 175.41 118.056 185.711 C 150.51 200.045 154.728 237.712 178.413 261.157 C 191.434 288.547 224.787 298.45 236.83 326.275 C 255.683 349.432 273.84 386.203 296.412 405.655 C 318.593 420.813 328.71 400.378 350.55 393.812 C 379.816 382.186 406.532 371.262 428.865 349.674 C 453.906 333.034 444.572 278.279 472.408 272.094 C 476.03 256.866 478.702 243.317 498.908 246.676 C 523.417 240.334 537.252 266.387 560.551 269.82 C 593.994 281.74 628.048 299.901 663.323 304.604 C 678.379 309.754 720.622 315.098 707.32 290.187 C 704.622 285.134 704.468 302.558 695.495 297.711 C 686.745 294.371 679.547 292.285 670.187 287.648 C 665.375 285.264 675.777 273.324 670.918 270.676 C 645.464 256.802 548.903 225.315 528.8 208.736 C 557.476 201.605 611.236 217.848 635.873 209.477 C 658.761 213.499 709.479 190.084 688.634 182.386 C 685.732 181.315 688.094 198.107 683.299 198.202 C 678.958 198.724 663.124 202.443 653.227 198.016 C 643.099 193.485 638.905 180.801 634.469 180.953 C 610.804 181.766 601.507 182.28 577.712 182.144 C 567.848 181.978 538.394 175.708 517.847 172.462 C 503.557 170.204 481.575 167.539 485.488 158.154 C 499.073 155.223 562.857 145.082 565.697 129.735 C 555.463 136.21 540.536 133.414 532.525 130.42 C 523.616 127.091 486.188 129.098 464.869 131.539 C 436.068 143.106 412.521 133.288 392.267 111.554 C 364.581 95.1377 331.081 108.441 301.011 108.208 C 269.856 109.479 239.445 98.8059 208.267 97.3203 C 174.659 93.2799 137.399 89.7989 116.021 59.8411 C 101.651 48.7981 83.6481 42.5512 65.5385 42.1934 Z M 419.103 267.949 C 441.496 281.127 421.546 296.369 412.082 313.462 C 407.776 317.351 403.199 329.422 398.734 333.782 C 389.011 343.273 379.816 346.135 375.099 359.484 C 353.88 364.038 329.841 364.642 312.566 350.513 C 305.417 346.856 297.228 335.767 297.457 324.797 C 297.682 314.033 296.082 306.687 294.924 293.643 C 294.171 285.163 295.897 268.03 302.71 261.264 C 309.524 254.497 317.942 243.83 343.497 228.039 C 358.523 218.754 377.913 234.422 384.99 244.258 C 396.136 241.813 411.148 258.276 419.103 267.949 Z" /><path
     id="path2539"
     style="display:inline;fill:#f8d8c5;fill-opacity:1"
     d="M 45.7299 33.166 L 47.601 106.117 C 75.3834 115.137 107.13 115.95 130.024 136.511 C 165.98 159.113 209.827 152.73 250.117 155.962 C 288.154 155.944 326.549 157.611 363.416 167.316 C 397.082 171.436 416.773 201.902 438.994 223.573 C 450.13 237.357 464.371 272.085 480.714 266.599 C 474.808 240.172 446.235 225.575 433.565 203.298 C 425.274 170.01 467.688 173.682 480.194 195.252 C 502.203 222.159 535.24 229.43 565.026 242.77 C 586.966 262.611 612.368 270.904 641.073 274.396 C 663.558 281.664 681.086 320.569 707.682 299.81 C 711.085 283.336 683.082 308.009 673.063 290.477 C 663.195 264.189 636.53 261.088 610.985 252.992 C 585.206 243.245 560.802 230.286 538.533 213.872 C 528.931 205.094 489.265 193.752 520.444 187.177 C 550.042 181.971 579.096 193.45 608.874 192.014 C 618.483 195.324 658.369 199.304 637.365 183.092 C 611.444 184.438 585.288 187.835 559.262 178.952 C 528.577 176.841 499.071 167.564 469.41 160.142 C 457.467 142.59 501.751 139.727 514.783 138.867 C 528.167 143.306 542.672 125.23 521.092 131.601 C 490.375 135.237 458.559 136.719 428.33 136.132 C 404.32 123.961 386.236 97.7024 356.06 106.388 C 286.605 107.335 214.553 106.919 149.551 79.5232 C 123.082 68.2933 106.075 35.0609 73.5173 42.5224 C 63.6215 42.8329 52.2636 41.6257 45.7299 33.166 Z M 341.072 220.148 C 326.9 225.694 308.549 227.451 293.568 242.722 C 283.303 253.185 272.499 275.297 274.155 288.191 C 273.79 299.922 302.965 247.347 310.376 244.105 C 323.362 231.146 336.217 236.341 345.497 222.039 L 343.402 220.656 Z M 409.79 296.285 C 417.982 322.276 397.29 335.868 380.284 350.529 C 370.853 372.368 341.191 352.536 323.566 357.377 C 318.367 341.781 293.683 338.021 297.679 320.28 C 303.246 297.679 284.697 332.538 283.585 338.951 C 294.535 350.048 306.642 360.121 314.084 372.844 C 315.146 400.764 344.14 393.188 355.886 375.553 C 370.128 369.988 383.488 382.185 385.123 360.754 C 394.512 341.244 432.121 355.588 421.362 325.21 C 423.922 305.127 431.161 299.545 409.79 296.285 Z" /><path
     style="display:inline;fill:#caaa93;fill-opacity:1"
     d="M 398.124 394.91 C 393.167 394.786 376.43 404.155 372.861 404.037 C 370.639 405.505 367.42 404.618 365.474 406.527 C 365.261 409.993 364.609 411.084 366.472 412.451 C 367.652 412.829 374.434 415.602 379.579 416.559 C 387.498 418.03 393.321 414.129 395.162 414.021 C 397.155 413.516 405.215 404.869 404.796 401.918 L 398.951 395.066 C 398.732 394.968 398.455 394.918 398.124 394.91 Z"
     id="path6" /><path
     id="path5"
     style="display:inline;fill:#f8d8c5;fill-opacity:1"
     d="M 546.894 123.033 C 544.197 123.961 543.663 127.105 542.143 129.156 C 540.889 131.905 543.815 133.956 546.109 134.648 C 550.183 136.063 554.685 135.843 558.844 134.945 C 561.199 134.281 563.885 132.498 563.697 129.734 L 558.832 127.129 C 554.869 125.738 551.189 123.283 546.895 123.033 Z M 677.08 179.043 C 668.358 179.113 650.628 181.347 646.994 181.254 C 644.385 182.596 644.361 186.3 642.076 188.045 C 641.826 191.213 645.758 192.211 647.945 193.461 C 649.331 193.807 657.298 199.999 663.342 200.873 C 672.642 202.218 681.137 198.299 683.299 198.201 C 685.64 197.739 688.752 184.7 688.26 182.002 L 681.395 179.395 C 680.625 179.125 679.093 179.027 677.08 179.043 Z M 670.918 270.676 C 659.587 281.823 663.589 286.145 674.316 291.812 C 675.702 292.158 677.943 296.915 683.986 297.789 C 693.287 299.134 701.783 295.215 703.945 295.117 C 706.287 294.655 709.398 281.616 708.906 278.918 L 702.041 276.311 C 697.936 274.872 675.39 270.791 670.918 270.676 Z" /><path
     id="path9"
     style="display:inline"
     d="M 42.3471 32.8789 C 39.4784 33.2192 38.1808 35.4306 38.6908 39.4395 C 39.595 46.5463 39.3213 53.7103 40.0014 60.7734 C 41.8238 79.7016 39.1539 98.4756 38.7631 117.316 C 38.5026 129.873 36.9568 142.413 37.1283 155.002 C 37.3019 167.744 38.2015 180.492 36.64 193.205 C 35.5393 202.168 35.4958 202.155 44.099 205.51 C 45.1844 205.933 46.2377 206.446 47.2943 206.939 C 59.8033 212.785 72.1642 218.975 84.8627 224.375 C 95.1022 228.729 102.958 235.526 108.785 244.742 C 113.407 252.054 117.713 259.576 121.947 267.123 C 139.536 298.482 163.751 323.351 194.775 341.518 C 198.416 343.65 199.948 346.911 201.466 350.457 C 205.052 358.831 209.55 366.738 217.644 371.438 C 234.892 381.452 247.911 395.704 259.581 411.936 C 269.656 422.145 279.799 431.804 290.831 440.379 C 302.075 449.117 313.711 449.324 325.544 441.549 C 333.882 436.07 341.897 430.097 350.042 424.326 C 354.708 421.021 359.776 419.71 365.556 420.154 C 375.499 420.919 385.429 420.572 395.162 418.021 C 405.335 415.356 408.332 411.459 408.214 400.844 C 408.194 399.023 408.965 398.075 410.503 397.439 C 412.346 396.678 414.172 395.872 415.995 395.066 C 438.739 385.02 457.528 370.015 469.341 348.057 C 482.189 324.175 495.276 300.084 496.177 271.359 C 503.618 275.027 510.64 278.781 517.896 282.01 C 538.544 291.197 559.05 300.559 580.849 307.115 C 599.625 312.762 617.979 319.844 637.072 324.568 C 653.291 328.582 669.5 332.033 686.169 327.127 C 694.144 324.78 701.069 320.983 706.535 314.4 C 716.193 302.767 714.457 289.693 711.728 276.561 C 711.006 273.086 708.042 270.793 704.101 270.244 C 696.854 269.235 689.694 267.767 682.589 265.984 C 677.6 264.732 672.532 262.986 667.497 262.98 C 663.623 262.975 660.43 262.12 657.109 260.6 C 648.185 256.513 639.235 252.582 629.701 249.947 C 622.61 247.988 616.169 244.349 610.48 239.355 C 612.403 237.4 614.045 238.603 615.593 238.742 C 636.667 240.64 657.783 242.254 678.251 235.068 C 695.615 228.973 711.087 211.773 703.63 188.832 C 700.746 179.959 689.065 171.343 680.175 172.875 C 673.267 174.066 666.318 174.591 659.394 175.395 C 651.171 176.349 643.262 179.446 634.71 178.312 C 623.178 176.783 611.582 175.72 600.001 174.576 C 584.807 173.076 569.594 171.773 554.412 170.166 C 552.325 169.945 549.762 169.997 547.929 167.795 C 550.067 166.701 552.052 165.879 553.831 164.738 C 559.665 160.998 566.459 158.582 570.542 152.422 C 576.872 142.875 572.193 124.392 561.954 118.879 C 559.66 117.643 557.175 117.455 554.671 118.125 C 543.327 121.16 532.286 125.127 520.251 125.523 C 509.357 125.883 498.431 126.558 487.564 126.318 C 468.735 125.904 450.084 126.06 431.953 132.004 C 427.808 133.363 424.254 132.511 420.874 129.559 C 416.932 126.115 413.926 121.972 410.74 117.91 C 401.024 105.527 388.623 98.1691 372.568 97.1641 C 365.909 96.7473 359.357 97.2438 352.781 97.7285 C 342.189 98.5093 331.568 98.4523 320.98 99.0234 C 303.622 99.9598 286.286 100.113 268.91 99.7871 C 258.617 99.5943 248.246 96.7971 238.187 98.4082 C 223.924 100.693 211.22 96.7022 198.523 91.7637 C 185.634 86.7508 172.91 81.0862 159.136 79.1816 C 151.469 78.1215 146.25 74.4845 142.148 68.3848 C 136.308 59.7012 129.006 52.5526 120.046 47.0352 C 108.256 39.7747 96.0524 34.3652 81.7103 34.8926 C 69.7028 35.334 57.6322 35.9684 45.7299 33.166 C 44.4335 32.8608 43.3033 32.7655 42.3471 32.8789 Z M 47.8803 44.0977 C 61.2237 46.7286 74.4294 45.9674 87.4232 47.4492 C 103.736 49.3095 116.345 58.6008 127.581 69.8809 C 130.271 72.5806 132.441 75.8013 134.822 78.8047 C 139.713 84.9764 146.087 89.0035 153.841 89.6992 C 171.113 91.2491 187.397 96.6984 203.732 101.824 C 215.612 105.552 227.575 107.798 240.001 107.76 C 244.166 107.747 248.31 108.013 252.421 108.863 C 258.501 110.121 264.597 110.43 270.779 109.242 C 274.55 108.518 278.469 108.692 282.23 109.412 C 295.243 111.903 308.333 112.252 321.517 111.506 C 335.477 110.716 349.435 110.062 363.324 108.246 C 371.126 107.226 378.973 107.37 386.425 110.584 C 395.324 113.656 401.376 119.312 407.046 125.52 C 409.74 128.469 412.438 131.441 415.392 134.119 C 420.876 139.091 427.362 141.696 434.708 139.664 C 447.512 136.122 460.649 139.265 473.494 137.23 C 477.684 136.567 475.709 141.615 478.273 142.449 C 481.14 142.11 478.964 138.147 481.773 137.652 C 484.368 139.629 480.729 143.34 483.66 145.059 C 484.643 145.232 485.341 144.667 485.347 144.123 C 485.424 137.368 490.376 137.581 495.017 137.152 C 506.291 136.111 517.541 134.871 528.454 131.648 C 530.022 131.186 531.453 130.992 532.525 132.42 C 535.994 137.042 540.809 137.492 546.009 136.957 C 549.153 136.634 552.308 136.403 555.462 136.209 C 559.507 135.96 563.267 135.37 563.697 129.736 C 566.756 135.492 566.347 140.491 562.857 145.082 C 558.598 150.684 552.944 154.444 546.228 156.49 C 535.556 159.742 524.842 162.857 514.16 166.076 C 512.354 166.62 510.577 166.788 508.742 166.41 C 493.745 163.323 478.562 160.942 464.453 154.533 C 463.293 154.007 462.09 153.24 460.413 153.873 C 460.459 156.194 462.442 156.636 463.88 157.43 C 474.912 163.513 486.824 167.2 498.951 170.342 C 502.368 171.227 506.808 171.189 505.91 176.592 C 508.789 176.973 508.354 174.025 510.351 173.666 C 513.536 176.183 508.639 180.534 512.396 183.061 C 515.29 181.206 513.244 177.738 514.931 175.23 C 518.04 174.904 519.632 175.74 518.162 179.342 C 517.158 181.798 515.11 184.048 516.437 187.65 C 519.367 185.484 520.182 182.556 521.242 179.887 C 522.239 177.375 523.782 176.918 526.324 177.285 C 544.902 179.972 563.389 183.42 582.203 184.234 C 586.529 184.422 590.906 184.621 589.115 191.098 C 588.915 191.818 589.419 192.716 590.419 193.203 C 592.832 192.867 592.83 190.785 592.816 189.094 C 592.788 185.759 594.398 184.849 597.476 184.879 C 609.806 184.998 622.137 184.987 634.468 184.953 C 637.723 184.944 639.326 185.836 640.949 189.34 C 645.192 198.503 653.751 202.027 663.341 202.873 C 668.635 203.34 673.995 203.18 679.322 203.094 C 685.026 203.002 688.694 198.806 689.915 191.238 C 690.282 188.964 690.035 186.575 691.183 184.424 C 696.497 188.656 698.285 196.263 695.759 203.861 C 692.298 214.272 684.393 220.04 674.595 223.525 C 669.426 225.364 663.985 226.26 658.462 226.695 C 640.497 228.111 622.543 228.337 604.579 226.711 C 598.862 226.193 593.228 226.746 587.874 228.869 C 581.791 231.281 576.739 230.147 571.009 226.74 C 550.542 214.57 529.609 203.186 508.964 191.309 C 495.216 183.399 454.027 154.481 439.937 147.59 C 438.362 146.819 436.514 146.056 434.74 147.344 C 434.132 148.917 435.22 149.514 436.263 150.037 C 439.235 151.529 442.337 152.798 445.244 154.371 C 456.83 160.641 494.923 189.706 506.156 196.564 C 509.275 198.469 511.181 200.242 509.156 204.025 C 508.63 205.007 508.455 206.295 509.888 207.15 C 512.815 206.664 511.518 203.005 514.206 201.66 C 520.423 205.755 512.97 210.735 514.855 215.287 C 519.29 213.695 518.564 209.235 519.988 205.799 C 524.262 207.01 526.72 208.652 523.759 213.369 C 522.78 214.93 521.685 216.869 523.044 219.221 C 526.938 217.763 526.05 213.153 528.8 210.736 C 551.005 222.464 571.489 237.614 595.548 246.891 C 594.855 251.519 591.755 256.291 593.173 262.816 C 597.723 258.161 596.274 251.895 599.685 246.949 C 601.646 251.314 597.49 254.952 599.917 258.744 C 603.778 256.708 602.088 252.458 604.355 249.588 C 611.279 252.232 602.876 257.501 606.632 260.619 C 610.014 259.748 608.767 255.618 611.068 253.42 C 626.757 259.867 643.969 262.046 659.753 268.871 C 662.347 269.993 663.853 271.285 663.531 274.4 C 662.651 282.906 667.22 288.146 674.316 291.812 C 680.131 294.817 686.523 296.215 692.603 298.482 C 699.5 301.055 702.104 299.8 705.47 293.295 C 705.969 292.331 705.596 290.906 707.32 290.187 C 706.734 300.733 702.768 308.96 693.322 313.891 C 679.688 321.007 665.55 319.393 651.408 315.893 C 619.531 308.003 588.293 298.008 557.394 286.947 C 535.281 279.032 513.392 270.53 491.804 261.262 C 488.447 259.82 485.983 257.694 484.15 254.477 C 478.807 245.101 470.783 237.888 463.578 230.082 C 446.369 211.439 430.613 191.675 416.035 170.939 C 415.122 169.642 414.565 167.861 412.525 167.668 C 411.131 169.107 412.519 170.118 413.119 171.115 C 426.106 192.715 440.491 213.317 456.99 232.406 C 461.887 238.073 466.427 244.094 471.714 249.367 C 479.217 256.85 477.126 262.397 470.427 270.615 C 468.966 272.408 467.148 273.906 465.564 275.605 C 465.288 275.902 465.361 276.525 465.066 278.117 C 473.305 275.703 476.763 269.631 479.878 262.562 C 482.656 267.442 483.366 272.113 483.482 276.943 C 483.548 279.703 481.624 280.5 479.497 281.336 C 477.166 282.252 474.287 282.644 473.494 286.002 C 476.715 287.674 479.019 285.173 481.62 284.631 C 482.015 292.806 479.824 296.958 474.777 298.051 C 469.394 299.216 464.074 298.492 458.622 297.641 C 463.038 305.072 469.986 302.626 476.816 302.09 C 475.85 307.87 473.32 312.545 471.429 317.408 C 464.146 336.142 455.631 354.133 440.941 368.482 C 430.447 378.732 418.253 386.412 405.259 393.004 C 402.514 394.396 401.153 393.717 399.673 391.242 C 394.966 383.368 389.72 375.944 382.812 369.705 C 378.392 365.713 380.632 356.277 386.902 351.9 C 392.247 348.169 397.573 344.473 401.859 339.504 C 404.232 336.752 406.502 333.91 409.287 330.541 C 413.082 340.544 417.507 349.678 427.29 354.822 C 429.051 352.074 426.765 351.154 425.794 349.894 C 415.564 336.612 413.477 321.878 417.697 305.934 C 418.754 301.94 420.586 300.511 424.912 302.039 C 429.316 303.594 433.969 304.888 439.212 304.344 C 438.582 301.436 436.425 301.476 434.908 300.941 C 416.839 294.571 402.859 282.91 391.55 267.723 C 388.475 263.593 386.412 259.222 386.851 253.881 C 387.01 251.942 386.887 249.864 384.99 248.258 C 380.681 249.963 383.758 254.377 381.365 257.369 C 376.523 256.265 372.365 253.373 368.39 250.227 C 361.626 244.873 354.629 240.291 345.478 240.381 C 342.012 240.415 339.616 241.449 337.456 244.309 C 322.229 264.477 309.562 286.142 299.037 309.088 C 298.919 309.344 298.599 309.507 298.191 309.881 C 298.002 306.968 297.838 304.219 297.615 301.477 C 297.597 301.265 297.156 301.09 296.699 300.73 C 294.883 302.026 294.816 304.062 294.673 305.953 C 294.121 313.277 294.043 320.643 294.853 327.918 C 295.262 331.592 294.835 333.648 290.915 334.234 C 289.814 334.399 288.703 335.076 288.669 336.557 C 313.442 343.314 322.878 362.394 327.388 385.506 C 330.523 382.257 330.524 382.257 329.769 364.924 C 329.963 364.751 330.204 364.348 330.451 364.344 C 346.683 364.092 362.702 364.634 377.384 373.117 C 388.316 379.434 394.115 390.059 400.796 399.918 C 403.193 403.455 400.761 406.552 397.249 407.769 C 389.674 410.396 381.699 411.365 373.79 412.48 C 371.026 412.871 370.704 410.532 370.191 408.596 C 369.552 406.184 370.623 404.714 372.861 404.037 C 377.481 402.64 382.197 401.521 386.73 399.887 C 389.82 398.773 393.324 397.857 395.351 393.154 C 390.407 394.438 386.378 395.476 382.355 396.531 C 378.329 397.588 374.293 398.601 370.292 399.746 C 365.777 401.039 362.238 404.25 361.347 408.437 C 360.273 413.487 357.264 414.213 353.232 415.264 C 345.582 417.258 338.965 421.585 332.32 425.748 C 329.274 427.656 326.145 429.434 322.988 431.311 C 320.971 428.166 323.264 423.801 319.085 422.33 C 316.777 423.882 317.662 426.057 317.609 427.928 C 317.446 433.648 315.912 435.3 310.173 435.543 C 309.017 435.592 307.803 435.616 306.699 435.332 C 303.629 434.542 299.719 433.886 298.785 430.822 C 297.825 427.676 301.555 425.92 303.656 423.93 C 305.582 422.103 307.769 420.551 309.853 418.893 C 310.884 418.072 312.364 417.316 311.433 415.734 C 310.399 413.978 308.739 414.661 307.486 415.459 C 303.117 418.243 299.037 421.399 295.82 425.527 C 295.407 426.056 295.146 426.703 294.367 428.094 C 288.883 422.713 283.545 418.416 279.353 413.197 C 262.729 392.504 244.065 374.275 220.826 360.967 C 212.161 356.005 207.175 348.089 205.769 337.955 C 205.133 333.368 204.145 328.738 201.714 324.644 C 200.886 323.25 199.943 321.287 197.978 322.127 C 195.648 323.124 197.175 324.986 197.792 326.375 C 199.22 329.585 199.804 332.948 200.589 337.385 C 192.592 332.249 186.195 326.742 179.974 321.084 C 159.689 302.634 143.17 281.292 130.619 256.838 C 123.761 243.478 116.254 230.461 103.72 221.336 C 94.6813 214.755 83.9396 211.851 73.8099 207.666 C 65.8132 204.362 57.6316 201.48 49.4349 198.697 C 45.993 197.529 44.6214 195.657 44.9896 192.068 C 47.2401 170.141 45.0141 148.125 46.3158 126.154 C 47.4176 107.557 49.1004 88.9448 48.6127 70.3007 C 48.3874 61.6894 48.0489 53.0901 47.8803 44.0976 Z M 103.986 69.0664 C 110.081 74.4578 111.865 77.729 115.759 79.6197 C 118.186 80.798 127.503 83.7794 126.906 78.6465 C 118.705 78.7189 105.876 67.9013 103.986 69.0664 Z M 333.884 126.312 C 324.646 126.23 316.089 129.028 307.269 129.848 C 310.668 132.676 340.524 130.945 344.484 128.322 C 343.041 125.577 340.431 126.903 337.888 126.537 C 336.538 126.394 335.204 126.324 333.884 126.312 Z M 557.37 126.863 C 557.946 126.884 558.441 126.969 558.831 127.129 C 560.129 127.66 560.516 128.568 560.435 129.84 C 560.351 131.15 559.667 132.109 558.421 132.316 C 556.807 132.585 555.145 132.569 553.503 132.676 C 549.624 133.085 546.577 133.884 543.46 132.705 C 545.478 129.754 553.345 126.72 557.37 126.863 Z M 369.949 127.887 C 367.868 127.897 366.041 128.351 364.679 129.346 C 366.272 131.952 369.226 130.75 371.744 131.838 C 376.285 133.091 380.276 134.614 384.162 136.535 C 387.998 138.432 389.753 143.091 394.49 144.738 C 392.779 136.129 378.965 127.844 369.949 127.887 Z M 684.273 181.062 C 686.044 181.356 686.811 182.753 686.679 185.186 C 686.589 186.847 686.642 188.52 686.486 190.174 C 685.77 197.771 683.702 199.628 676.111 199.611 C 674.279 199.607 672.448 199.621 670.617 199.627 C 661.376 199.226 652.929 199.151 646.697 192.195 C 645.504 190.865 643.585 189.729 644.351 187.615 C 645.083 185.594 647.272 185.475 649.019 185.328 C 660.127 184.393 671.191 183.152 682.162 181.141 C 682.979 180.991 683.682 180.965 684.273 181.062 Z M 119.437 187.195 C 128.267 203.382 131.541 220.896 133.234 238.916 C 138.06 225.736 134.685 213.38 129.931 200.771 C 127.584 195.157 125.337 189.928 119.437 187.195 Z M 362.232 223.172 C 355.677 223.088 349.374 224.545 343.497 228.039 C 339.848 230.209 335.487 232.168 334.913 237.58 C 342.169 233.019 349.025 228.046 358.173 227.191 C 362.13 226.486 365.974 226.862 368.865 223.752 C 366.63 223.4 364.417 223.2 362.232 223.172 Z M 299.913 244.721 C 288.274 250.438 274.276 287.493 281.558 294.625 C 284.73 289.186 284.282 282.982 286.05 276.988 C 288.142 266.454 291.86 257.131 298.839 249.305 C 299.93 248.081 301.77 246.761 299.913 244.721 Z M 343.617 248.762 C 344.813 248.446 346.247 248.927 347.935 250.041 C 350.847 251.962 354.093 253.45 356.767 255.646 C 363.143 260.885 370.329 264.048 378.484 264.867 C 381.06 265.126 382.099 266.285 382.999 268.592 C 387.97 281.327 395.813 291.868 407.533 299.197 C 409.977 300.726 410.759 302.2 409.13 304.805 C 406.518 308.983 405.231 313.759 404.958 318.535 C 404.701 323.042 402.639 326.003 399.365 328.504 C 393.948 332.641 388.535 336.785 383.019 340.787 C 378.182 344.296 374.073 348.337 372.663 354.357 C 371.994 357.219 370.559 357.709 367.964 356.926 C 357.014 353.621 345.909 354.253 334.847 356.107 C 331.694 356.636 329.786 355.758 328.163 353.229 C 322.601 344.559 315.04 338.255 305.413 334.553 C 302.862 333.571 302.343 331.912 301.845 329.328 C 299.966 319.577 305.829 312.961 310.716 305.984 C 320.672 291.771 329.178 276.736 336.757 261.152 C 338.291 257.735 339.714 255.076 340.718 252.266 C 341.459 250.191 342.42 249.078 343.617 248.762 Z M 314.376 250.105 C 296.5 258.215 288.774 276.568 294.324 284.135 C 296.261 282.767 295.865 280.61 296.14 278.723 C 297.123 271.972 299.393 265.826 304.71 261.264 C 307.598 258.786 310.753 256.619 314.04 254.07 C 315.193 252.602 316.173 251.374 314.376 250.105 Z M 668.917 272.676 C 672.555 274.81 668.427 277.415 669.507 279.84 C 671.97 281.079 673.291 279.298 673.654 277.396 C 674.348 273.753 676.328 274.045 679.111 274.652 C 685.933 276.14 692.771 277.652 699.767 278.102 C 702.094 278.251 703.62 279.035 703.626 281.617 C 703.587 283.631 703.593 284.802 703.456 285.957 C 702.341 295.355 699.034 297.543 690.185 294.406 C 685.174 292.63 680.156 290.746 675.419 288.357 C 668.505 284.87 666.513 279.653 668.917 272.676 Z M 287.892 326.596 C 283.737 328.536 283.236 331.066 282.091 333.586 C 280.402 345.138 281.278 348.164 287.966 350.434 C 284.837 342.548 286.042 335.107 287.892 326.596 Z" /></g>
</svg>
