<?xml version="1.0" encoding="UTF-8" standalone="no"?>
<svg
   width="24"
   height="24"
   viewBox="0 0 24 24"
   fill="none"
   stroke="currentColor"
   stroke-width="2"
   stroke-linecap="round"
   stroke-linejoin="round"
   version="1.1"
   id="svg5"
   xmlns="http://www.w3.org/2000/svg"
   xmlns:svg="http://www.w3.org/2000/svg">
  <defs
     id="defs5" />
  <rect
     style="fill:#f1f5f9;fill-opacity:1;stroke:#434343;stroke-width:2;stroke-linecap:round;stroke-linejoin:round;stroke-opacity:0"
     id="rect5"
     width="24"
     height="24"
     x="0"
     y="0"
     ry="3.5244756" />
  <path
     id="path5-8"
     style="fill:#deaa87;fill-opacity:1;stroke:none;stroke-width:1.5;stroke-dasharray:none;stroke-opacity:1"
     d="m 12.2731,16.4573 c 1.7487,0.2608 2.2594,-1.1494 2.8178,-1.9027 0.5583,-0.7533 -0.304,-2.4482 -0.6334,-3.2218 C 14.1282,10.5591 13.2966,9.34421 12.348,8.68554 11.3993,8.02686 10.3779,8.28174 8.96419,8.07377 7.55049,7.86579 6.24145,7.89533 5.71786,7.67678 5.19426,7.45823 2.98197,6.86681 2.98197,6.86681 v 5.97869 c 0,0 1.27967,0.4697 1.7127,0.8545 0.43303,0.3849 0.06605,1.1412 1.02272,2.055 0.95668,0.9138 1.8713,1.8248 2.68047,2.1711 0.80917,0.3463 2.14974,-0.3143 3.28464,-0.4076 1.1348,-0.0932 0.1271,-3.3865 -0.7854,-3.426 C 9.98458,14.053 8.89622,14.725 9.14579,13.453 c 0.24957,-1.2721 1.37861,-0.9937 1.37861,-0.9937 0,0 1.4756,1.342 0.4159,1.5916 M 2.98197,6.00932 V 13.7 M 13.771376,9.5552324 c 0.4575,0.16638 3.476024,0.8925676 4.733724,1.5377676 1.4636,0.7507 2.6131,1.5811 2.4068,2.3126 -0.2313,0.8199 -1.1251,1.9693 -2.6552,1.2193 -1.1683,-0.5726 -1.9655,-0.793 -2.4231,-1.1258 M 13.4562,8.83871 c 0.71,-0.05185 2.2184,-0.76178 4.3332,-0.91215 2.179,-0.15494 2.1985,0.641 2.2553,1.39882 C 20.1084,10.1747 19.208,10.8752 19,11" />
  <path
     d="m 13.092624,8.8750676 c 0.71,-0.05185 2.581976,-0.7981376 4.696776,-0.9485076 2.179,-0.15494 2.1985,0.641 2.2553,1.39882 C 20.1084,10.1747 19.208,10.8752 19,11"
     id="path1"
     style="stroke:#1d1d1d;stroke-width:1;stroke-dasharray:none;stroke-opacity:1" />
  <path
     d="m 13.662304,9.3370871 c 0.4575,0.16638 3.585096,1.1107129 4.842796,1.7559129 1.4636,0.7507 2.6131,1.5811 2.4068,2.3126 -0.2313,0.8199 -1.1251,1.9693 -2.6552,1.2193 -1.1683,-0.5726 -2.329076,-0.93843 -2.786676,-1.27123"
     id="path2"
     style="stroke:#1d1d1d;stroke-width:1;stroke-dasharray:none;stroke-opacity:1" />
  <path
     d="M 2.98197,6.00932 V 13.7"
     id="path3"
     style="stroke:#1d1d1d;stroke-width:1;stroke-dasharray:none;stroke-opacity:1" />
  <path
     d="m 2.98197,6.86681 c 0,0 2.21229,0.59142 2.73589,0.80997 0.52359,0.21855 1.83263,0.18901 3.24633,0.39699 1.41371,0.20797 2.43511,-0.04691 3.38381,0.61177 0.9486,0.65867 1.7802,1.87356 2.1095,2.64726 0.3294,0.7736 1.1917,2.4685 0.6334,3.2218 -0.5584,0.7533 -1.0691,2.1635 -2.8178,1.9027"
     id="path4"
     style="stroke:#1d1d1d;stroke-width:1;stroke-dasharray:none;stroke-opacity:1" />
  <path
     d="m 2.98197,12.8455 c 0,0 1.27967,0.4697 1.7127,0.8545 0.43303,0.3849 0.06605,1.1412 1.02272,2.055 0.95668,0.9138 1.8713,1.8248 2.68047,2.1711 0.80917,0.3463 2.14974,-0.3143 3.28464,-0.4076 1.1348,-0.0932 0.1271,-3.3865 -0.7854,-3.426 C 9.98458,14.053 8.89622,14.725 9.14579,13.453 c 0.24957,-1.2721 1.37861,-0.9937 1.37861,-0.9937 0,0 1.4756,1.342 0.4159,1.5916"
     id="path5"
     style="stroke:#1d1d1d;stroke-width:1;stroke-dasharray:none;stroke-opacity:1" />
</svg>
